<?xml version="1.0" encoding="UTF-8" standalone="no"?>
<!-- Created with Inkscape (http://www.inkscape.org/) -->

<svg
   xmlns:dc="http://purl.org/dc/elements/1.1/"
   xmlns:cc="http://creativecommons.org/ns#"
   xmlns:rdf="http://www.w3.org/1999/02/22-rdf-syntax-ns#"
   xmlns:svg="http://www.w3.org/2000/svg"
   xmlns="http://www.w3.org/2000/svg"
   xmlns:sodipodi="http://sodipodi.sourceforge.net/DTD/sodipodi-0.dtd"
   xmlns:inkscape="http://www.inkscape.org/namespaces/inkscape"
   width="97.763504mm"
   height="139.68539mm"
   viewBox="0 0 346.40612 494.94825"
   id="svg2"
   version="1.1"
   inkscape:version="0.91 r13725"
   sodipodi:docname="pen-tested-rating.svg"
   inkscape:export-filename="C:\Users\fowlerd3\OneDrive\CovPhD\Graphics\pentested-rating.png"
   inkscape:export-xdpi="44.888283"
   inkscape:export-ydpi="44.888283">
  <title
     id="title4793">Mock Pen-tested Rating</title>
  <defs
     id="defs4" />
  <sodipodi:namedview
     id="base"
     pagecolor="#ffffff"
     bordercolor="#666666"
     borderopacity="1.0"
     inkscape:pageopacity="0.0"
     inkscape:pageshadow="2"
     inkscape:zoom="0.98994949"
     inkscape:cx="-52.850367"
     inkscape:cy="205.44201"
     inkscape:document-units="px"
     inkscape:current-layer="text4766"
     showgrid="false"
     fit-margin-top="2"
     fit-margin-right="2"
     fit-margin-left="2"
     fit-margin-bottom="2"
     inkscape:window-width="1377"
     inkscape:window-height="980"
     inkscape:window-x="-5"
     inkscape:window-y="0"
     inkscape:window-maximized="0"
     showguides="false"
     inkscape:showpageshadow="false" />
  <metadata
     id="metadata7">
    <rdf:RDF>
      <cc:Work
         rdf:about="">
        <dc:format>image/svg+xml</dc:format>
        <dc:type
           rdf:resource="http://purl.org/dc/dcmitype/StillImage" />
        <dc:title>Mock Pen-tested Rating</dc:title>
        <dc:date>2016-12-06</dc:date>
        <dc:rights>
          <cc:Agent>
            <dc:title>Public domain</dc:title>
          </cc:Agent>
        </dc:rights>
        <dc:publisher>
          <cc:Agent>
            <dc:title>https://openclipart.org/</dc:title>
          </cc:Agent>
        </dc:publisher>
        <dc:source>https://openclipart.org/detail/267922/anonymous-face-mask</dc:source>
        <dc:language>en-GB</dc:language>
        <dc:subject>
          <rdf:Bag>
            <rdf:li>pen-testing</rdf:li>
            <rdf:li>cyber-security</rdf:li>
            <rdf:li>rating</rdf:li>
            <rdf:li>anonymous</rdf:li>
            <rdf:li>face</rdf:li>
            <rdf:li>mask</rdf:li>
            <rdf:li>protest</rdf:li>
            <rdf:li>hacktivism</rdf:li>
            <rdf:li>hacking</rdf:li>
            <rdf:li>security</rdf:li>
            <rdf:li>black</rdf:li>
            <rdf:li>white</rdf:li>
            <rdf:li>star</rdf:li>
          </rdf:Bag>
        </dc:subject>
        <dc:contributor>
          <cc:Agent>
            <dc:title>chatard</dc:title>
          </cc:Agent>
        </dc:contributor>
        <dc:description>A mock pen-testing rating badge.</dc:description>
      </cc:Work>
    </rdf:RDF>
  </metadata>
  <g
     inkscape:label="Layer 1"
     inkscape:groupmode="layer"
     id="layer1"
     transform="translate(-740.63281,-450.37225)">
    <g
       style="font-style:normal;font-weight:normal;font-size:50px;line-height:125%;font-family:sans-serif;letter-spacing:0px;word-spacing:0px;fill:#000000;fill-opacity:1;stroke:none;stroke-width:1px;stroke-linecap:butt;stroke-linejoin:miter;stroke-opacity:1"
       id="text4766">
      <g
         id="g4896">
        <rect
           y="459.45886"
           x="749.71942"
           height="476.77499"
           width="328.23288"
           id="rect4511"
           style="fill:#ffffff;fill-opacity:1;stroke:#000000;stroke-width:4;stroke-linecap:round;stroke-linejoin:round;stroke-miterlimit:4;stroke-dasharray:none;stroke-opacity:1" />
        <flowRoot
           transform="matrix(1.0126562,0.01813049,-0.01813049,1.0126562,323.63454,453.11913)"
           style="font-size:40px;line-height:125%;font-family:Sans;letter-spacing:0px;word-spacing:0px;fill:#000000"
           xml:space="preserve"
           id="flowRoot5478"><flowRegion
             id="flowRegion5480"><rect
               height="56.569"
               x="-763.67999"
               width="395.98001"
               y="-87.494003"
               id="rect5482" /></flowRegion><flowPara
             id="flowPara5484" /></flowRoot>        <path
           style="fill:none"
           inkscape:connector-curvature="0"
           id="path3868"
           d="m 916.84206,888.11985 c -6.54201,-0.50698 -16.99384,-3.69086 -23.15481,-7.05345 -7.65174,-4.17613 -29.3922,-22.12862 -40.9387,-33.80498 -5.86647,-5.93269 -14.05123,-14.14559 -18.18897,-18.25088 -18.09355,-17.95331 -27.55746,-29.96001 -34.9035,-44.27917 -5.06098,-9.86556 -7.0292,-15.84482 -11.53277,-35.03798 -4.86434,-20.73062 -7.36307,-38.45671 -7.83711,-55.59695 -0.22848,-8.27806 -0.87898,-27.96008 -1.44443,-43.73814 -1.05279,-29.37286 -0.54853,-40.18415 2.7259,-58.44599 2.56367,-14.298 8.78314,-29.69449 14.46063,-35.79789 6.14619,-6.60675 32.25599,-15.23988 58.97739,-19.50083 13.15207,-2.09718 78.96405,-4.32632 97.55482,-3.30434 30.86524,1.6968 60.96789,7.48019 79.47659,15.26962 9.7483,4.1025 19.0371,11.1745 22.3725,17.03382 7.7275,13.57525 11.2907,32.94529 15.7007,85.34758 3.2529,38.65468 1.7256,69.46811 -4.5844,92.48998 -7.7077,28.12194 -16.2267,47.87713 -26.6276,61.7514 -12.8306,17.11476 -67.87798,66.73138 -83.44063,75.21046 -11.68804,6.36738 -24.05132,8.83505 -38.61545,7.70602 z m 6.90642,-170.58088 c -0.27213,-1.19205 -2.31005,-0.94244 -2.77205,0.33955 -0.25509,0.70756 0.20415,0.99006 1.27956,0.78713 0.92255,-0.17409 1.59423,-0.6811 1.49249,-1.12668 z m 82.69562,-51.71952 c 1.1399,-0.41404 1.416,-0.85048 0.752,-1.18851 -2.0428,-1.04019 -16.6637,-2.00939 -22.11077,-1.46568 -5.65878,0.56492 -7.13572,1.09183 -5.91157,2.10903 1.67595,1.39274 23.72374,1.83349 27.27024,0.54517 z M 867.08995,663.3581 c 2.39116,-1.34705 -2.50573,-2.21742 -13.37195,-2.37687 -7.40033,-0.10859 -12.47837,0.20914 -15.29938,0.95704 -4.62124,1.22544 -5.36297,2.22163 -2.07487,2.78638 3.15358,0.54167 29.43183,-0.62604 30.74639,-1.36651 z m 0.6921,-33.81838 c 0.32435,-0.47599 0.33592,-1.40779 0.0259,-2.07074 -0.44072,-0.94202 -0.97287,-1.00499 -2.43596,-0.28816 -1.02957,0.50443 -1.86072,1.45352 -1.84694,2.10902 0.0286,1.36121 3.36625,1.55712 4.25708,0.24988 z m 70.315,-3.07275 c 0.91808,-0.91753 1.45387,-1.84712 1.19065,-2.06585 -0.89817,-0.7464 -6.38625,0.75261 -6.36553,1.73867 0.0525,2.4954 2.82965,2.67094 5.17488,0.32713 z m -35.3002,-5.33831 c -0.66711,-0.66837 -1.64884,-1.20607 -2.18168,-1.19487 -0.53285,0.0112 -0.18686,0.73882 0.7689,1.61688 1.97956,1.81861 3.26576,1.43437 1.41278,-0.42205 z" />
        <path
           sodipodi:nodetypes="ccscsccccccccccccscsssccsssssccccsssssscccscccscccccccscccscccccscccsccccsscsccccccccsccscsssccsscssssccccscccssscccccssccccscccccccsccccccccssscscscccscscccscccscsscccccccccccccccccscccssccsccccssccssccccsccsccccssscssscccccscsscccssccccssscsccccscscssccccsccscsccc"
           style="fill:#000000"
           inkscape:connector-curvature="0"
           id="path3072"
           d="m 902.46241,872.41265 c -12.15554,-3.14192 -17.67373,-6.20333 -32.23924,-17.88702 -13.48467,-10.81749 -16.27639,-13.40848 -38.00541,-35.28554 -18.17305,-18.2968 -28.42564,-30.26657 -32.07429,-37.45026 -1.98304,-3.90371 -0.69756,-4.23697 3.53846,-0.91744 1.94483,1.52403 3.52977,2.47194 3.52207,2.10626 -0.008,-0.36558 -2.65585,-4.94138 -5.88477,-10.16815 -6.32521,-10.23948 -9.66293,-18.64021 -8.00279,-20.14201 0.68553,-0.62022 1.62357,-0.20446 3.1617,1.40122 7.74224,8.0826 12.39323,13.41851 14.08032,16.15321 1.0658,1.72752 2.61207,3.60508 3.43615,4.17223 0.82409,0.56718 1.50519,1.35636 1.51355,1.75369 0.008,0.39732 1.46107,2.42824 3.22818,4.51321 1.7672,2.08495 4.69222,5.5912 6.50004,7.79181 1.80793,2.20059 3.52239,4.17928 3.81,4.3971 1.03734,0.7855 15.12786,17.3563 16.2999,19.16813 0.66006,1.02092 3.85586,4.81106 7.10187,8.4225 21.16433,23.54794 30.49297,31.75511 40.38166,35.52781 7.14249,2.72498 12.67709,3.57104 12.61814,1.92865 -0.063,-1.74325 -2.75945,-14.92113 -4.70751,-23.00428 -2.5206,-10.4587 -2.02592,-22.18966 1.31309,-31.1321 2.44973,-6.56091 2.47227,-6.8099 0.86714,-9.58891 -2.0403,-3.53235 -6.22914,-5.6981 -13.00054,-6.72182 -10.13068,-1.53144 -13.289,-2.36062 -17.62274,-4.62687 -3.23342,-1.69072 -4.11397,-2.53738 -3.35392,-3.22503 1.10974,-1.00401 12.94077,0.0407 20.46778,1.80753 2.91939,0.68526 6.39872,0.65218 14.07761,-0.13383 7.31519,-0.7488 13.78755,-0.84887 22.88639,-0.35387 6.9778,0.3796 15.2201,0.62934 18.31624,0.55504 7.65908,-0.18387 31.81133,-5.71848 39.30898,-9.00777 10.32241,-4.52881 22.12983,-16.02007 28.78633,-28.01654 2.2115,-3.98541 2.5063,-6.38588 0.4878,-3.97155 -7.2223,8.63826 -16.55481,17.90211 -18.96473,18.82545 -2.35238,0.90127 -5.89639,0.99224 -18.51986,0.47515 -21.26757,-0.87108 -22.6546,-0.81024 -22.6167,0.99245 0.0835,3.97354 -2.51891,4.15061 -45.46164,3.0929 -28.5361,-0.70286 -32.4099,-1.18445 -32.46989,-4.03674 -0.0168,-0.7996 -2.75056,-1.16565 -10.54495,-1.41203 -14.34716,-0.45345 -29.32539,-2.03495 -32.66497,-3.44904 -3.85812,-1.63365 -8.23931,-6.44601 -15.8105,-17.36638 -3.58018,-5.16419 -8.22767,-11.11037 -10.32756,-13.21447 -2.09999,-2.10377 -4.07867,-4.6438 -4.397,-5.64449 -0.54679,-1.71924 -1.38093,-2.12995 -3.74445,-1.84377 -1.19633,0.14486 -3.64976,-2.07199 -4.52394,-4.08765 -0.84604,-1.95064 0.15153,-1.79342 4.55322,0.71746 3.04685,1.73813 4.78768,2.12726 8.94284,1.99942 13.47846,-0.41492 28.47591,-3.58791 42.72239,-9.03853 8.61641,-3.2966 17.3627,-5.01507 18.92382,-3.71801 1.20388,1.00046 1.45875,8.5892 0.34209,10.18785 -0.62632,0.89655 -1.15677,0.68657 -2.47027,-0.97798 -0.92005,-1.16582 -1.69203,-3.0362 -1.71559,-4.15631 -0.0611,-2.90631 -1.38213,-3.19649 -1.95918,-0.43028 -0.58743,2.81672 -5.86643,5.09935 -12.09586,5.23036 -2.21397,0.0466 -6.56414,1.00743 -9.66684,2.13533 -3.10298,1.1279 -7.84748,2.58981 -10.54362,3.24882 -2.69598,0.65898 -5.09325,1.6568 -5.3274,2.2173 -0.60842,1.45706 7.35795,13.55126 11.48165,17.43137 l 3.48018,3.27422 15.4404,-0.0535 c 9.1153,-0.0316 16.96697,-0.44393 19.16671,-1.00654 4.50469,-1.15234 9.74505,-5.69214 12.44933,-10.78573 1.94401,-3.66123 1.94703,-3.74995 0.1542,-4.56178 -3.0692,-1.3899 -10.08079,-7.63951 -9.71836,-8.66216 0.53274,-1.50236 7.13876,-1.75947 11.40894,-0.44406 2.1265,0.65499 5.76409,1.30881 8.08363,1.45296 2.31955,0.14413 7.15841,1.38864 10.75271,2.76564 l 6.53566,2.50355 6.15547,-1.61199 c 3.38553,-0.88653 8.47093,-1.98416 11.3013,-2.43915 2.82998,-0.45494 8.89283,-1.5033 13.47286,-2.32982 l 8.32749,-1.50266 1.76311,1.81038 c 1.21019,1.24259 1.50905,2.22283 0.95302,3.12557 -0.91623,1.48765 -9.01096,4.38117 -14.29494,5.10981 -2.69095,0.3711 -3.50217,0.85326 -3.47665,2.06637 0.0892,4.2422 9.47877,14.78877 14.90368,16.73991 5.12472,1.8434 20.91807,2.41919 27.86307,1.01584 4.98637,-1.00755 5.73694,-1.50362 12.96156,-8.56684 8.53277,-8.34263 10.13617,-10.88685 7.98107,-12.66417 -0.7611,-0.6275 -8.62663,-4.08032 -17.47935,-7.67293 -8.85236,-3.59261 -16.91552,-7.28657 -17.91866,-8.20887 -2.6909,-2.47441 -4.35462,-2.07995 -4.3062,1.02102 0.0235,1.4546 -0.35649,3.2026 -0.84265,3.8844 -0.65516,0.91892 -0.94691,0.3458 -1.12738,-2.2149 -0.13396,-1.89999 -0.29093,-4.03706 -0.34892,-4.74909 -0.13491,-1.65569 6.45705,-3.84481 9.69192,-3.21845 1.30626,0.25292 6.84886,2.29165 12.31709,4.53053 5.46805,2.23889 15.89327,5.85737 23.16715,8.04151 15.4981,4.65284 21.7474,5.07342 28.4358,1.91381 2.1726,-1.02636 3.9543,-1.67135 3.9593,-1.43344 0,0.23793 -1.6347,2.61375 -3.6438,5.27966 -3.1661,4.20125 -3.6403,5.44117 -3.5591,9.30524 0.1128,5.36118 -0.8722,8.15843 -5.5575,15.78227 -8.1605,13.27847 -20.0286,28.45187 -34.00983,43.48001 -3.61101,3.88159 -7.92737,8.86962 -9.59221,11.08463 -4.10686,5.46498 -14.6524,15.47452 -16.34037,15.51002 -4.12335,0.0867 6.60274,-19.57977 17.91874,-32.85378 2.95523,-3.46663 5.36677,-6.71033 5.35911,-7.2083 -0.008,-0.52613 -3.42843,0.30156 -8.16695,1.97633 -4.48415,1.58489 -8.96379,2.91082 -9.95486,2.94647 -0.99098,0.0356 -4.39521,1.22534 -7.56481,2.6437 -3.96817,1.77568 -8.35246,2.91734 -14.07751,3.66577 -4.57296,0.59784 -9.84398,1.79048 -11.71268,2.65025 -3.55229,1.63401 -7.25348,5.23581 -7.21592,7.02218 0.0121,0.57363 -0.50264,1.2068 -1.14377,1.4071 -0.92326,0.28839 -0.88082,1.19042 0.20422,4.33722 3.68437,10.68576 3.81603,15.866 0.63917,25.15344 -2.12246,6.20512 -7.21952,31.43214 -6.47576,32.04982 1.10911,0.9217 11.50613,-1.71538 17.86103,-4.53031 9.10435,-4.03267 16.62718,-10.17349 23.07132,-18.83284 7.14479,-9.60126 19.10771,-23.85352 33.39475,-39.78517 11.61153,-12.94811 15.83453,-18.09048 23.50573,-28.61941 6.617,-9.0822 9.2573,-11.78987 14.7103,-15.08338 4.5578,-2.7527 5.2324,-2.94411 6.5412,-1.85647 1.2635,1.0499 1.3125,1.85674 0.365,6.01125 -0.6018,2.63923 -2.2555,7.02091 -3.6749,9.73669 -2.1769,4.16595 -2.4004,5.21703 -1.4291,6.7195 0.9942,1.53774 0.5936,2.8251 -2.9323,9.42313 -5.142,9.62264 -10.6087,16.35576 -24.2583,29.87909 -10.34021,10.2448 -42.76568,38.58373 -54.89416,47.97639 -15.02413,11.63516 -36.12117,16.59676 -52.53237,12.35558 z m 31.87442,-114.61886 c -0.0127,-0.60192 -0.92708,-1.77327 -2.032,-2.6029 -1.10493,-0.82971 -4.37236,-4.29458 -7.261,-7.69986 -6.66456,-7.85633 -7.75819,-8.73839 -10.3883,-8.38025 -1.23031,0.16764 -6.48813,4.12687 -12.29374,9.25693 -5.57927,4.93035 -10.06797,8.99442 -9.97427,9.0307 1.78069,0.69202 21.00792,1.73707 30.00683,1.63085 9.46064,-0.11152 11.96058,-0.37019 11.94239,-1.23548 z m -76.79456,51.873 c -1.81418,-1.03386 -3.95593,-1.86594 -4.75948,-1.84904 -3.6926,0.0777 -16.27691,-12.98599 -24.97956,-25.93101 -3.19977,-4.7598 -12.51346,-16.50201 -14.92388,-18.81611 -0.68471,-0.65718 -2.2481,-2.82221 -3.47428,-4.81117 -1.22627,-1.98897 -3.42133,-4.87335 -4.87812,-6.40975 -5.17338,-5.45631 -15.05384,-25.21904 -14.20287,-28.40845 0.27721,-1.03917 1.82771,-2.77792 3.44552,-3.86385 l 2.94147,-1.97435 1.72031,1.89585 c 0.94627,1.04276 5.53425,8.04763 10.19587,15.56657 13.63036,21.9855 19.15256,27.87048 32.34389,34.46927 6.65096,3.32697 6.10689,4.23695 -1.15101,1.92532 -5.28202,-1.68233 -6.69201,-1.47123 -5.02056,0.75166 0.56494,0.75127 4.75544,6.84872 9.31229,13.55005 4.55682,6.70116 9.56586,13.73927 11.1314,15.6397 3.63343,4.41156 6.23066,8.5963 5.87498,9.46666 -0.15256,0.37331 -1.76169,-0.16716 -3.57586,-1.20105 z M 1036.1327,658.96867 c -5.096,-1.62812 -12.3548,-1.90732 -20.8146,-0.8006 l -5.6167,0.73475 4.6428,-2.41227 c 4.3537,-2.26213 4.6261,-2.599 4.3757,-5.41105 -0.6393,-7.17868 -8.7812,-14.56982 -20.53361,-18.64034 l -7.06747,-2.44768 -9.76602,0.98996 c -15.75713,1.59729 -26.64039,4.98846 -32.80457,10.22229 -2.91397,2.47409 -3.06086,3.4568 -1.00748,6.74117 1.88941,3.0222 0.81059,3.03561 -3.14071,0.0389 -2.75527,-2.08958 -2.9933,-2.5796 -2.05507,-4.2305 2.49863,-4.39651 7.39134,-7.05963 20.46586,-11.13909 19.16257,-5.97948 31.84728,-6.50909 43.81177,-1.82916 6.7857,2.65418 8.3589,3.95897 14.8415,12.30877 l 4.042,5.20625 5.3812,-0.20888 c 3.7324,-0.14496 5.9396,-0.66648 7.2038,-1.70225 1.0023,-0.82132 1.8295,-1.15851 1.8382,-0.74924 0.01,0.40923 -0.8192,1.21916 -1.8396,1.79985 -1.8984,1.08035 -2.5398,4.31257 -0.8487,4.277 0.516,-0.0108 0.9452,0.31215 0.9538,0.71778 0.01,0.40562 -0.7267,0.59947 -1.6337,0.43079 -0.9071,-0.1687 -2.2748,0.0752 -3.0394,0.54203 -1.4032,0.85675 -1.0669,1.16854 6.6445,6.15892 1.9033,1.23167 1.5053,1.1728 -4.034,-0.59703 z m -217.98524,-2.74686 c -3.63129,-0.82347 -9.66721,-1.63122 -13.41417,-1.79501 -4.94657,-0.21627 -6.8183,-0.6077 -6.83559,-1.42946 -0.0131,-0.62236 -0.76386,-1.17178 -1.6684,-1.22097 -0.90453,-0.0491 -2.2484,-0.1139 -2.98648,-0.14383 -0.73807,-0.0299 -1.9498,-1.27889 -2.69281,-2.7755 -1.32731,-2.67357 -1.31299,-2.71114 0.82609,-2.1539 8.44167,2.19924 13.25882,0.7467 17.06989,-5.14716 3.29476,-5.09599 9.46324,-10.12053 15.58295,-12.69216 5.19939,-2.18539 6.00832,-2.28926 16.38295,-2.10327 16.00797,0.28693 18.8942,1.70372 3.90946,1.9187 -14.11936,0.20251 -19.76963,1.84146 -26.23607,7.61012 -4.97002,4.43334 -8.92513,11.5696 -7.47199,13.48216 1.43074,1.88233 6.59672,3.87563 13.61076,5.25184 3.36974,0.66114 6.53488,1.52429 7.03362,1.91812 1.60928,1.27083 -6.2315,0.84077 -13.10992,-0.71905 z m 183.22464,-5.76979 c -5.8083,-2.68727 -21.9834,-3.12795 -31.76395,-0.86518 -6.23265,1.442 -6.4482,1.43611 -13.28352,-0.35885 -5.50401,-1.44534 -6.95508,-2.15707 -6.98174,-3.42429 -0.0461,-2.1928 9.33042,-6.34841 19.94909,-8.84077 7.39831,-1.73678 9.14446,-1.86679 16.97414,-1.26348 4.80019,0.36986 10.67644,1.37051 13.05802,2.22369 9.88286,3.54049 15.53946,8.4502 13.14706,11.41151 -1.5691,1.94241 -7.9321,2.58328 -11.0991,1.11795 z m -123.73685,0.0942 c -0.006,-0.2823 0.87675,-1.64179 1.96152,-3.02106 1.22701,-1.5601 1.90956,-3.62144 1.80631,-5.45493 l -0.16616,-2.94715 1.87342,1.88238 c 3.36556,3.38166 2.2417,6.40129 -3.37308,9.06283 -1.15017,0.54519 -2.09607,0.76029 -2.10201,0.47798 z m -61.04283,-1.31399 c -5.0659,-2.06922 -4.76992,-4.01905 1.20863,-7.96101 7.0753,-4.66515 12.63563,-6.47896 21.97058,-7.1663 6.20296,-0.45676 9.71871,-0.24896 15.6741,0.92637 8.86249,1.74909 17.21591,4.87655 20.28914,7.5965 1.89271,1.6749 1.98012,2.03286 0.76501,3.13221 -2.08046,1.88227 -11.69081,3.64554 -13.84024,2.53928 -3.35952,-1.72911 -13.15858,-2.58723 -23.28684,-2.03919 -8.13487,0.44017 -10.93799,0.92294 -14.07077,2.4234 -4.70263,2.25203 -4.56071,2.24311 -8.70877,0.54877 z m 115.02989,-20.42967 c -0.0739,-3.51371 1.67881,-5.86334 6.88836,-9.23443 1.04168,-0.67412 3.03068,-2.59232 4.42004,-4.26264 2.39553,-2.87998 2.43124,-3.06088 0.69168,-3.50058 -2.34672,-0.59312 -3.34872,-4.42886 -1.61382,-6.17801 2.00939,-2.02591 1.54967,-2.52827 -1.76186,-1.92544 -1.88957,0.34397 -3.68972,0.1557 -4.75922,-0.4977 -1.65611,-1.01187 -1.65567,-1.18762 0.0135,-4.72644 2.58797,-5.48668 9.77203,-12.84511 15.80049,-16.18491 6.5982,-3.65517 15.56438,-6.83475 26.03301,-9.23165 10.02299,-2.29495 28.37891,-2.79909 36.49971,-1.00255 7.1104,1.57299 14.9884,6.16807 19.2856,11.24906 6.2145,7.34758 9.9374,23.18491 5.9814,25.44403 -1.0689,0.61028 -2.578,0.1576 -5.87,-1.7609 l -4.4314,-2.58232 -6.4531,1.19576 c -3.5491,0.65764 -8.9415,1.06785 -11.983,0.91151 -7.4548,-0.38316 -18.80086,1.0356 -28.55598,3.57071 -8.51447,2.21269 -10.78666,3.11889 -15.25073,6.08282 -4.73438,3.14317 -10.31433,4.68925 -17.51723,4.85349 -8.37104,0.19083 -10.91794,1.2951 -13.26857,5.752 -2.93475,5.56553 -4.06366,6.11749 -4.14965,2.02883 z m -42.47268,-1.54041 c -1.42315,-1.2535 -4.20162,-2.87972 -6.17442,-3.61387 -1.9728,-0.73415 -5.45723,-2.04975 -7.74321,-2.92358 -2.28588,-0.87383 -6.35073,-3.34354 -9.033,-5.48822 -6.01312,-4.80801 -8.26913,-5.80099 -14.55307,-6.40556 -2.7173,-0.26139 -9.29425,-1.66714 -14.61548,-3.12381 -15.44974,-4.22941 -26.56475,-3.91256 -39.53761,1.12694 l -5.491,2.13306 -1.96945,-1.63656 c -2.93286,-2.43735 -3.00289,-11.88289 -0.13155,-17.76773 2.3071,-4.72828 7.69141,-9.6494 12.6563,-11.56749 7.26979,-2.80844 23.10738,-5.86935 28.45914,-5.50013 14.72416,1.01584 24.044,3.71735 43.04815,12.47833 14.15381,6.52467 16.28753,8.71531 11.3546,11.6568 -2.86011,1.70564 -3.08837,5.63038 -0.41736,7.17681 2.04658,1.18493 2.33221,5.59437 0.47145,7.27787 -1.84584,1.67007 -1.30154,3.09996 2.57358,6.76036 3.21382,3.03578 5.9642,7.93268 6.02289,10.72369 0.0345,1.64103 -2.26707,1.02965 -4.91995,-1.30686 z" />
        <path
           transform="matrix(0.99975866,-0.02196872,0.02010351,0.9997979,0,0)"
           sodipodi:open="true"
           d="m 760.01044,567.29461 a 452.75357,358.33878 0 0 1 281.43836,8.15768"
           sodipodi:end="5.0652571"
           sodipodi:start="4.4327337"
           sodipodi:ry="358.33878"
           sodipodi:rx="452.75357"
           sodipodi:cy="911.71216"
           sodipodi:cx="884.98145"
           sodipodi:type="arc"
           id="path4441"
           style="fill:none;fill-opacity:1;stroke:#000000;stroke-width:9.16918564;stroke-linecap:round;stroke-linejoin:round;stroke-miterlimit:4;stroke-dasharray:none;stroke-opacity:1" />
        <path
           inkscape:transform-center-y="15.295655"
           inkscape:transform-center-x="0.12877239"
           transform="matrix(-0.0740337,0.99725574,-0.99991403,-0.01311213,0,0)"
           sodipodi:open="true"
           d="m 539.00655,-1093.4762 a 378.65497,326.62711 0 0 1 228.38773,5.282"
           sodipodi:end="5.0456548"
           sodipodi:start="4.4327337"
           sodipodi:ry="326.62711"
           sodipodi:rx="378.65497"
           sodipodi:cy="-779.53839"
           sodipodi:cx="643.52454"
           sodipodi:type="arc"
           id="path4441-6"
           style="fill:none;fill-opacity:1;stroke:#000000;stroke-width:8.00572872;stroke-linecap:round;stroke-linejoin:round;stroke-miterlimit:4;stroke-dasharray:none;stroke-opacity:1" />
        <path
           inkscape:transform-center-y="15.95253"
           inkscape:transform-center-x="-0.15883745"
           transform="matrix(0.13410411,0.99096725,0.99879868,-0.04900211,0,0)"
           sodipodi:open="true"
           d="m 590.56815,691.39439 a 395.71228,403.09988 0 0 1 238.67594,6.51878"
           sodipodi:end="5.0456548"
           sodipodi:start="4.4327337"
           sodipodi:ry="403.09988"
           sodipodi:rx="395.71228"
           sodipodi:cy="1078.8341"
           sodipodi:cx="699.79437"
           sodipodi:type="arc"
           id="path4441-6-5"
           style="fill:none;fill-opacity:1;stroke:#000000;stroke-width:9.09178257;stroke-linecap:round;stroke-linejoin:round;stroke-miterlimit:4;stroke-dasharray:none;stroke-opacity:1" />
        <path
           sodipodi:sides="5"
           sodipodi:r2="24.327696"
           inkscape:rounded="0"
           inkscape:export-ydpi="90"
           sodipodi:cx="340"
           sodipodi:cy="172.36218"
           inkscape:export-xdpi="90"
           inkscape:randomized="0"
           sodipodi:arg1="0.8685394"
           sodipodi:arg2="1.4968579"
           transform="matrix(0.64419571,-5.4871283e-4,6.4034577e-4,0.56449548,570.35785,397.54415)"
           inkscape:export-filename="/home/ubuntu/Desktop/3-stars.png"
           inkscape:flatsided="false"
           sodipodi:r1="48.655392"
           d="m 371.42857,209.50504 -29.63146,-12.88163 -27.4101,17.1069 3.09453,-32.16184 -24.73981,-20.78224 31.54398,-6.99548 12.12007,-29.95102 16.40072,27.83839 32.23042,2.27149 -21.40778,24.20055 z"
           sodipodi:type="star"
           style="fill:#6c5353"
           id="path3793-4-7" />
        <path
           sodipodi:sides="5"
           sodipodi:r2="24.327696"
           inkscape:rounded="0"
           inkscape:export-ydpi="90"
           sodipodi:cx="340"
           sodipodi:cy="172.36218"
           inkscape:export-xdpi="90"
           inkscape:randomized="0"
           sodipodi:arg1="0.8685394"
           sodipodi:arg2="1.4968579"
           transform="matrix(0.64419571,-5.4871283e-4,6.4034577e-4,0.56449548,630.98491,397.54415)"
           inkscape:export-filename="/home/ubuntu/Desktop/3-stars.png"
           inkscape:flatsided="false"
           sodipodi:r1="48.655392"
           d="m 371.42857,209.50504 -29.63146,-12.88163 -27.4101,17.1069 3.09453,-32.16184 -24.73981,-20.78224 31.54398,-6.99548 12.12007,-29.95102 16.40072,27.83839 32.23042,2.27149 -21.40778,24.20055 z"
           sodipodi:type="star"
           style="fill:#6c5353"
           id="path3793-8-6-5" />
        <path
           d="m 371.42857,209.50504 -29.63146,-12.88163 -27.4101,17.1069 3.09453,-32.16184 -24.73981,-20.78224 31.54398,-6.99548 12.12007,-29.95102 16.40072,27.83839 32.23042,2.27149 -21.40778,24.20055 z"
           inkscape:flatsided="false"
           inkscape:rounded="0"
           inkscape:export-ydpi="90"
           sodipodi:cx="340"
           sodipodi:cy="172.36218"
           inkscape:export-xdpi="90"
           inkscape:randomized="0"
           transform="matrix(0.55198848,-5.1093658e-4,4.9381389e-4,0.47305397,662.32899,412.32706)"
           sodipodi:arg2="1.4968579"
           sodipodi:arg1="0.8685394"
           inkscape:export-filename="/home/ubuntu/Desktop/3-stars.png"
           sodipodi:r2="24.327696"
           sodipodi:r1="48.655392"
           sodipodi:sides="5"
           sodipodi:type="star"
           style="fill:#ffcf00"
           id="path3744-2-9-7-1" />
        <path
           inkscape:export-xdpi="90"
           inkscape:export-filename="/home/ubuntu/Desktop/3-stars.png"
           sodipodi:nodetypes="ccccccccc"
           inkscape:export-ydpi="90"
           d="m 823.9905,488.24113 13.91957,10.09495 -0.60858,4.06908 c 20.89775,-10.1269 27.01981,-18.08008 26.61566,-18.1754 l -6.65933,-0.40319 -9.35346,-13.0303 -6.66423,14.24653 -17.24924,3.19821 z"
           style="fill:#ffffff;fill-opacity:0.60793002"
           id="path4935-0-6-7"
           inkscape:connector-curvature="0" />
        <path
           sodipodi:sides="5"
           sodipodi:r2="24.327696"
           inkscape:rounded="0"
           inkscape:export-ydpi="90"
           sodipodi:cx="340"
           sodipodi:cy="172.36218"
           inkscape:export-xdpi="90"
           inkscape:randomized="0"
           sodipodi:arg1="0.8685394"
           sodipodi:arg2="1.4968579"
           transform="matrix(0.64419571,-5.4871283e-4,6.4034577e-4,0.56449548,691.61197,397.54415)"
           inkscape:export-filename="/home/ubuntu/Desktop/3-stars.png"
           inkscape:flatsided="false"
           sodipodi:r1="48.655392"
           d="m 371.42857,209.50504 -29.63146,-12.88163 -27.4101,17.1069 3.09453,-32.16184 -24.73981,-20.78224 31.54398,-6.99548 12.12007,-29.95102 16.40072,27.83839 32.23042,2.27149 -21.40778,24.20055 z"
           sodipodi:type="star"
           style="fill:#6c5353"
           id="path3793-8-9-0-4" />
        <path
           d="m 371.42857,209.50504 -29.63146,-12.88163 -27.4101,17.1069 3.09453,-32.16184 -24.73981,-20.78224 31.54398,-6.99548 12.12007,-29.95102 16.40072,27.83839 32.23042,2.27149 -21.40778,24.20055 z"
           inkscape:flatsided="false"
           inkscape:rounded="0"
           inkscape:export-ydpi="90"
           sodipodi:cx="340"
           sodipodi:cy="172.36218"
           inkscape:export-xdpi="90"
           inkscape:randomized="0"
           transform="matrix(0.55198848,-5.1093658e-4,4.9381389e-4,0.47305397,722.95605,412.32706)"
           sodipodi:arg2="1.4968579"
           sodipodi:arg1="0.8685394"
           inkscape:export-filename="/home/ubuntu/Desktop/3-stars.png"
           sodipodi:r2="24.327696"
           sodipodi:r1="48.655392"
           sodipodi:sides="5"
           sodipodi:type="star"
           style="fill:#ffcf00"
           id="path3744-2-9-2-9-1" />
        <path
           inkscape:export-xdpi="90"
           inkscape:export-filename="/home/ubuntu/Desktop/3-stars.png"
           sodipodi:nodetypes="ccccccccc"
           inkscape:export-ydpi="90"
           d="m 884.63246,488.24113 13.91957,10.09495 -0.60859,4.06908 c 20.89774,-10.1269 27.0198,-18.08008 26.61566,-18.1754 l -6.65934,-0.40319 -9.35345,-13.0303 -6.66423,14.24653 -17.24925,3.19821 z"
           style="fill:#ffffff;fill-opacity:0.60793002"
           id="path4935-0-5-7-7"
           inkscape:connector-curvature="0" />
        <path
           sodipodi:sides="5"
           sodipodi:r2="24.327696"
           inkscape:rounded="0"
           inkscape:export-ydpi="90"
           sodipodi:cx="340"
           sodipodi:cy="172.36218"
           inkscape:export-xdpi="90"
           inkscape:randomized="0"
           sodipodi:arg1="0.8685394"
           sodipodi:arg2="1.4968579"
           transform="matrix(0.64419571,-5.4871283e-4,6.4034577e-4,0.56449548,753.71944,397.54415)"
           inkscape:export-filename="/home/ubuntu/Desktop/3-stars.png"
           inkscape:flatsided="false"
           sodipodi:r1="48.655392"
           d="m 371.42857,209.50504 -29.63146,-12.88163 -27.4101,17.1069 3.09453,-32.16184 -24.73981,-20.78224 31.54398,-6.99548 12.12007,-29.95102 16.40072,27.83839 32.23042,2.27149 -21.40778,24.20055 z"
           sodipodi:type="star"
           style="fill:#6c5353"
           id="path3793-8-4-5-1" />
        <path
           sodipodi:sides="5"
           sodipodi:r2="24.327696"
           inkscape:rounded="0"
           inkscape:export-ydpi="90"
           sodipodi:cx="340"
           sodipodi:cy="172.36218"
           inkscape:export-xdpi="90"
           inkscape:randomized="0"
           sodipodi:arg1="0.8685394"
           sodipodi:arg2="1.4968579"
           transform="matrix(0.64419571,-5.4871283e-4,6.4034577e-4,0.56449548,815.82266,397.54415)"
           inkscape:export-filename="/home/ubuntu/Desktop/3-stars.png"
           inkscape:flatsided="false"
           sodipodi:r1="48.655392"
           d="m 371.42857,209.50504 -29.63146,-12.88163 -27.4101,17.1069 3.09453,-32.16184 -24.73981,-20.78224 31.54398,-6.99548 12.12007,-29.95102 16.40072,27.83839 32.23042,2.27149 -21.40778,24.20055 z"
           sodipodi:type="star"
           style="fill:#6c5353"
           id="path3793-8-2-8-7" />
        <path
           d="m 371.42857,209.50504 -29.63146,-12.88163 -27.4101,17.1069 3.09453,-32.16184 -24.73981,-20.78224 31.54398,-6.99548 12.12007,-29.95102 16.40072,27.83839 32.23042,2.27149 -21.40778,24.20055 z"
           inkscape:flatsided="false"
           inkscape:rounded="0"
           inkscape:export-ydpi="90"
           sodipodi:cx="340"
           sodipodi:cy="172.36218"
           inkscape:export-xdpi="90"
           inkscape:randomized="0"
           transform="matrix(0.55198848,-5.1093658e-4,4.9381389e-4,0.47305397,601.7013,412.32706)"
           sodipodi:arg2="1.4968579"
           sodipodi:arg1="0.8685394"
           inkscape:export-filename="/home/ubuntu/Desktop/3-stars.png"
           sodipodi:r2="24.327696"
           sodipodi:r1="48.655392"
           sodipodi:sides="5"
           sodipodi:type="star"
           style="fill:#ffcf00"
           id="path3744-2-3-0" />
        <path
           inkscape:export-xdpi="90"
           inkscape:export-filename="/home/ubuntu/Desktop/3-stars.png"
           sodipodi:nodetypes="ccccccccc"
           inkscape:export-ydpi="90"
           d="m 763.37409,488.24113 13.91957,10.09495 -0.60859,4.06908 c 20.89776,-10.1269 27.0198,-18.08008 26.61566,-18.1754 l -6.65934,-0.40319 -9.35345,-13.0303 -6.66423,14.24653 -17.24925,3.19821 z"
           style="fill:#ffffff;fill-opacity:0.60793002"
           id="path4935-8-4"
           inkscape:connector-curvature="0" />
        <path
           id="path4773"
           d="m 782.23932,899.80896 q 0,2.41699 -0.85449,4.49219 -0.83008,2.05078 -2.34375,3.56445 -1.87989,1.87988 -4.44336,2.83203 -2.56348,0.92774 -6.46973,0.92774 l -4.83398,0 0,13.5498 -4.83399,0 0,-36.35254 9.86328,0 q 3.27149,0 5.542,0.56153 2.2705,0.5371 4.02832,1.70898 2.07519,1.3916 3.19824,3.4668 1.14746,2.07519 1.14746,5.24902 z m -5.0293,0.12207 q 0,-1.87988 -0.65918,-3.27148 -0.65918,-1.39161 -2.00195,-2.27051 -1.17188,-0.75684 -2.68555,-1.07422 -1.48926,-0.3418 -3.78418,-0.3418 l -4.78515,0 0,14.52637 4.07714,0 q 2.92969,0 4.76075,-0.5127 1.83105,-0.53711 2.97851,-1.68457 1.14746,-1.17187 1.61133,-2.46582 0.48828,-1.29394 0.48828,-2.90527 z"
           inkscape:connector-curvature="0" />
        <path
           id="path4775"
           d="m 812.586,925.17517 -23.9502,0 0,-36.35254 23.9502,0 0,4.29688 -19.11621,0 0,9.96093 19.11621,0 0,4.29688 -19.11621,0 0,13.50098 19.11621,0 0,4.29687 z"
           inkscape:connector-curvature="0" />
        <path
           id="path4777"
           d="m 848.0108,925.17517 -5.98144,0 -17.23633,-32.51953 0,32.51953 -4.5166,0 0,-36.35254 7.49512,0 15.72265,29.6875 0,-29.6875 4.5166,0 0,36.35254 z"
           inkscape:connector-curvature="0" />
        <path
           id="path4779"
           d="m 871.76569,911.47888 -15.23438,0 0,-4.41894 15.23438,0 0,4.41894 z"
           inkscape:connector-curvature="0" />
        <path
           id="path4781"
           d="m 906.36041,893.11951 -12.98828,0 0,32.05566 -4.83398,0 0,-32.05566 -12.98828,0 0,-4.29688 30.81054,0 0,4.29688 z"
           inkscape:connector-curvature="0" />
        <path
           id="path4783"
           d="m 935.24225,925.17517 -23.9502,0 0,-36.35254 23.9502,0 0,4.29688 -19.11621,0 0,9.96093 19.11621,0 0,4.29688 -19.11621,0 0,13.50098 19.11621,0 0,4.29687 z"
           inkscape:connector-curvature="0" />
        <path
           id="path4785"
           d="m 969.34869,914.79919 q 0,2.12403 -1.00097,4.19922 -0.97657,2.0752 -2.75879,3.51563 -1.95313,1.5625 -4.56543,2.4414 -2.58789,0.87891 -6.25,0.87891 -3.93067,0 -7.08008,-0.73242 -3.125,-0.73242 -6.37207,-2.17285 l 0,-6.05469 0.3418,0 q 2.75879,2.29492 6.37207,3.54004 3.61328,1.24512 6.78711,1.24512 4.49218,0 6.98242,-1.68457 2.51465,-1.68457 2.51465,-4.49219 0,-2.41699 -1.19629,-3.56446 -1.17188,-1.14746 -3.58887,-1.78222 -1.83105,-0.48828 -3.97949,-0.80567 -2.12402,-0.31738 -4.5166,-0.80566 -4.83399,-1.02539 -7.17774,-3.49121 -2.31933,-2.49024 -2.31933,-6.46973 0,-4.56543 3.85742,-7.4707 3.85742,-2.92969 9.79004,-2.92969 3.83301,0 7.03125,0.73242 3.19824,0.73243 5.66406,1.80664 l 0,5.7129 -0.3418,0 q -2.07519,-1.75782 -5.46875,-2.90528 -3.36914,-1.17187 -6.90918,-1.17187 -3.88183,0 -6.25,1.61132 -2.34375,1.61133 -2.34375,4.1504 0,2.2705 1.17188,3.56445 1.17187,1.29394 4.12598,1.97754 1.5625,0.34179 4.44335,0.83008 2.88086,0.48828 4.88282,1.00097 4.05273,1.07422 6.10351,3.24707 2.05078,2.17285 2.05078,6.0791 z"
           inkscape:connector-curvature="0" />
        <path
           id="path4787"
           d="m 1003.0401,893.11951 -12.98828,0 0,32.05566 -4.83399,0 0,-32.05566 -12.98828,0 0,-4.29688 30.81055,0 0,4.29688 z"
           inkscape:connector-curvature="0" />
        <path
           id="path4789"
           d="m 1031.9219,925.17517 -23.9502,0 0,-36.35254 23.9502,0 0,4.29688 -19.1162,0 0,9.96093 19.1162,0 0,4.29688 -19.1162,0 0,13.50098 19.1162,0 0,4.29687 z"
           inkscape:connector-curvature="0" />
        <path
           id="path4791"
           d="m 1070.3253,907.03552 q 0,4.95606 -2.1729,8.98438 -2.1484,4.02832 -5.7373,6.25 -2.4902,1.53808 -5.5664,2.22168 -3.0518,0.68359 -8.0566,0.68359 l -9.1797,0 0,-36.35254 9.082,0 q 5.3223,0 8.4473,0.78125 3.1494,0.75684 5.3222,2.09961 3.711,2.31934 5.7862,6.17676 2.0752,3.85742 2.0752,9.15527 z m -5.0538,-0.0732 q 0,-4.27246 -1.4892,-7.20215 -1.4893,-2.92969 -4.4434,-4.61426 -2.1484,-1.2207 -4.5654,-1.68457 -2.417,-0.48828 -5.7861,-0.48828 l -4.541,0 0,28.05176 4.541,0 q 3.4912,0 6.0791,-0.5127 2.6123,-0.51269 4.7851,-1.90429 2.71,-1.7334 4.0528,-4.56543 1.3671,-2.83203 1.3671,-7.08008 z"
           inkscape:connector-curvature="0" />
      </g>
    </g>
  </g>
</svg>
